<?xml version="1.0" encoding="UTF-8"?>
<svg width="40px" height="40px" viewBox="0 0 40 40" version="1.1" xmlns="http://www.w3.org/2000/svg" xmlns:xlink="http://www.w3.org/1999/xlink">
    <!-- Generator: Sketch 63.1 (92452) - https://sketch.com -->
    <title></title>
    <desc>Created with Sketch.</desc>
    <g id="Symbols" stroke="none" stroke-width="1" fill="none" fill-rule="evenodd">
        <g id="element-/-username-/-empty" fill="#000000" fill-rule="nonzero">
            <path d="M20,40 C31.09375,40 40,30.9821429 40,20 C40,8.95089286 31.0491071,0 20,0 C8.95089286,0 0,8.95089286 0,20 C0,31.0044643 8.92857143,40 20,40 Z M33.7018229,30 C32.9049479,26.048242 30.9791667,22.7808667 26.9283854,22.7808667 C25.1354167,24.5249387 22.7005208,25.6067048 20,25.6067048 C17.2994792,25.6067048 14.8645833,24.5249387 13.0716146,22.7808667 C9.02083333,22.7808667 7.09505208,26.048242 6.29817708,30 C4.23958333,27.1741619 3,23.7080948 3,19.9550286 C3,10.6165168 10.6367188,3 20,3 C29.3632812,3 37,10.6165168 37,19.9550286 C37,23.7080948 35.7604167,27.1741619 33.7018229,30 Z M20.5,24 C25.1927083,24 29,20.1927083 29,15.5 C29,10.8072917 25.1927083,7 20.5,7 C15.8072917,7 12,10.8072917 12,15.5 C12,20.1927083 15.8072917,24 20.5,24 Z" id=""></path>
        </g>
    </g>
</svg>